<svg width="120" height="60" viewBox="0 0 120 60" fill="none" xmlns="http://www.w3.org/2000/svg">
  <!-- Fond du logo Airtel Money -->
  <rect width="120" height="60" rx="8" fill="#F0F0F0"/>
  
  <!-- Logo Airtel -->
  <g transform="translate(10, 5)">
    <!-- Cercle Airtel -->
    <circle cx="20" cy="20" r="18" fill="#E40000"/>
    
    <!-- Symbole Airtel (wavelet) -->
    <path d="M10 19.5C11 15 15 12 20 12C25 12 29 15 30 19.5H26C25 17 23 15 20 15C17 15 15 17 14 19.5H10Z" fill="white"/>
    <path d="M10 21.5C11 26 15 29 20 29C25 29 29 26 30 21.5H26C25 24 23 26 20 26C17 26 15 24 14 21.5H10Z" fill="white"/>
    
    <!-- Texte AIRTEL en blanc à côté -->
    <text x="48" y="20" font-family="Arial, sans-serif" font-size="12" font-weight="bold" text-anchor="start" fill="#E40000">AIRTEL</text>
    
    <!-- MONEY texte -->
    <text x="70" y="32" font-family="Arial, sans-serif" font-size="14" font-weight="bold" text-anchor="middle" fill="#E40000">MONEY</text>
    
    <!-- Symbole dollar stylisé -->
    <path d="M90 12C88 12 86 14 86 16V18H83C82 18 81 19 81 20C81 21 82 22 83 22H86V29C86 30 87 31 88 31C89 31 90 30 90 29V22H95C96 22 97 21 97 20C97 19 96 18 95 18H90V16C90 15 91 14 92 14H95C96 14 97 13 97 12C97 11 96 10 95 10H90Z" fill="#E40000"/>
  </g>
  
  <!-- Bande inférieure avec la description -->
  <rect x="0" y="48" width="120" height="12" fill="#E40000"/>
  <text x="60" y="57" font-family="Arial, sans-serif" font-size="8" font-weight="bold" text-anchor="middle" fill="white">PAIEMENT MOBILE</text>
</svg>