<svg xmlns="http://www.w3.org/2000/svg" width="480" height="260" viewBox="0 0 480 260">
  <rect width="480" height="260" fill="#122a45" />
  <rect x="40" y="40" width="400" height="180" fill="#1e3b5f" rx="8" />
  
  <!-- Titre -->
  <rect x="80" y="60" width="240" height="30" fill="#264c7c" rx="4" />
  <rect x="80" y="100" width="160" height="20" fill="#264c7c" rx="4" />
  <rect x="80" y="130" width="200" height="20" fill="#264c7c" rx="4" />
  
  <!-- Graphique simple -->
  <rect x="330" y="70" width="100" height="100" fill="#3671b9" rx="4" />
  <polyline points="340,150 360,120 380,130 400,90 420,110" stroke="#ffffff" stroke-width="3" fill="none" />
  <circle cx="340" cy="150" r="4" fill="#ffffff" />
  <circle cx="360" cy="120" r="4" fill="#ffffff" />
  <circle cx="380" cy="130" r="4" fill="#ffffff" />
  <circle cx="400" cy="90" r="4" fill="#ffffff" />
  <circle cx="420" cy="110" r="4" fill="#ffffff" />
  
  <!-- Icônes -->
  <circle cx="100" cy="180" r="15" fill="#3bc573" />
  <circle cx="150" cy="180" r="15" fill="#ffbb29" />
  <circle cx="200" cy="180" r="15" fill="#ff6b6b" />
  
  <!-- Texte titre -->
  <text x="240" y="30" fill="#ffffff" font-family="Arial, sans-serif" font-size="18" text-anchor="middle">Présentation interactive</text>
</svg>