<svg width="200" height="60" viewBox="0 0 200 60" fill="none" xmlns="http://www.w3.org/2000/svg">
  <!-- Fond du logo -->
  <rect width="200" height="60" rx="10" fill="none"/>
  
  <!-- Cercle pour le symbole de paiement -->
  <circle cx="40" cy="30" r="20" fill="#5D67E9"/>
  
  <!-- Symbole $ stylisé -->
  <path d="M40 12C38.8954 12 38 12.8954 38 14V17C34.134 17 31 20.134 31 24C31 27.866 34.134 31 38 31H42C43.1046 31 44 31.8954 44 33C44 34.1046 43.1046 35 42 35H32C30.8954 35 30 35.8954 30 37C30 38.1046 30.8954 39 32 39H38V46C38 47.1046 38.8954 48 40 48C41.1046 48 42 47.1046 42 46V39C45.866 39 49 35.866 49 32C49 28.134 45.866 25 42 25H38C36.8954 25 36 24.1046 36 23C36 21.8954 36.8954 21 38 21H48C49.1046 21 50 20.1046 50 19C50 17.8954 49.1046 17 48 17H42V14C42 12.8954 41.1046 12 40 12Z" fill="white"/>
  
  <!-- Texte UniPesa -->
  <path d="M75 22C75 20.3431 76.3431 19 78 19C79.6569 19 81 20.3431 81 22V38C81 39.6569 79.6569 41 78 41C76.3431 41 75 39.6569 75 38V22Z" fill="#333333"/>
  <path d="M85 22C85 20.3431 86.3431 19 88 19C89.6569 19 91 20.3431 91 22V23.5L92 22.5C93.6667 20.8333 95.6667 20 98 20C100.333 20 102.167 20.8333 103.5 22.5C105.167 20.8333 107.333 20 110 20C112.667 20 114.667 20.8333 116 22.5C117.333 24.1667 118 26.3333 118 29V38C118 39.6569 116.657 41 115 41C113.343 41 112 39.6569 112 38V30C112 28.6667 111.75 27.6667 111.25 27C110.75 26.3333 109.917 26 108.75 26C107.583 26 106.667 26.3333 106 27C105.333 27.6667 105 28.6667 105 30V38C105 39.6569 103.657 41 102 41C100.343 41 99 39.6569 99 38V30C99 28.6667 98.75 27.6667 98.25 27C97.75 26.3333 96.9167 26 95.75 26C94.5833 26 93.6667 26.3333 93 27C92.3333 27.6667 92 28.6667 92 30V38C92 39.6569 90.6569 41 89 41C87.3431 41 86 39.6569 86 38L85 22Z" fill="#333333"/>
  <path d="M121 27C121 24.3333 121.833 22.1667 123.5 20.5C125.167 18.8333 127.333 18 130 18C132.667 18 134.833 18.8333 136.5 20.5C138.167 22.1667 139 24.3333 139 27V33C139 35.6667 138.167 37.8333 136.5 39.5C134.833 41.1667 132.667 42 130 42C127.333 42 125.167 41.1667 123.5 39.5C121.833 37.8333 121 35.6667 121 33V27ZM128 33C128 34.3333 128.333 35.3333 129 36C129.667 36.6667 130.667 37 132 37C133.333 37 134.333 36.6667 135 36C135.667 35.3333 136 34.3333 136 33V27C136 25.6667 135.667 24.6667 135 24C134.333 23.3333 133.333 23 132 23C130.667 23 129.667 23.3333 129 24C128.333 24.6667 128 25.6667 128 27V33Z" fill="#333333"/>
  <path d="M143 27C143 24.3333 143.833 22.1667 145.5 20.5C147.167 18.8333 149.333 18 152 18C154.667 18 156.833 18.8333 158.5 20.5C160.167 22.1667 161 24.3333 161 27V30C161 31.6569 159.657 33 158 33H149V33.5C149 34.5 149.417 35.3333 150.25 36C151.083 36.6667 152.083 37 153.25 37C154.417 37 155.25 36.8333 155.75 36.5C156.25 36.1667 156.667 35.8333 157 35.5C157.549 34.9393 158.42 34.8747 159.117 35.2542C159.65 35.5403 160 36.1048 160 36.7593C160 37.194 159.827 37.6287 159.5 38C158.167 40 155.833 41 152.5 41C149.167 41 146.667 40.1667 145 38.5C143.333 36.8333 142.5 34.6667 142.5 32V27H143ZM149 29H154.5V27C154.5 25.6667 154.167 24.6667 153.5 24C152.833 23.3333 151.833 23 150.5 23C149.167 23 148.167 23.3333 147.5 24C146.833 24.6667 146.5 25.6667 146.5 27V29H149Z" fill="#333333"/>
  <path d="M165 22C165 20.3431 166.343 19 168 19C169.657 19 171 20.3431 171 22V24L172 23C173.667 20.3333 176.167 19 179.5 19C182.833 19 185.333 20.1667 187 22.5C188.667 24.8333 189.5 27.6667 189.5 31V32C189.5 35.3333 188.667 38.1667 187 40.5C185.333 42.8333 182.833 44 179.5 44C176.5 44 174.167 42.8333 172.5 40.5V46C172.5 47.6569 171.157 49 169.5 49C167.843 49 166.5 47.6569 166.5 46L165 22ZM172 31.5C172 33.5 172.583 35.0833 173.75 36.25C174.917 37.4167 176.5 38 178.5 38C180.5 38 182.083 37.4167 183.25 36.25C184.417 35.0833 185 33.5 185 31.5V31C185 29 184.417 27.4167 183.25 26.25C182.083 25.0833 180.5 24.5 178.5 24.5C176.5 24.5 174.917 25.0833 173.75 26.25C172.583 27.4167 172 29 172 31V31.5Z" fill="#333333"/>
  <path d="M195 40V22C195 20.3431 196.343 19 198 19C199.657 19 201 20.3431 201 22V40C201 41.6569 199.657 43 198 43C196.343 43 195 41.6569 195 40Z" fill="#333333"/>
</svg>